<svg width="61" height="22" viewBox="0 0 61 22" fill="none" xmlns="http://www.w3.org/2000/svg">
<g clip-path="url(#clip0_203_470)">
<path d="M51.0983 2.302H33.7197C34.1083 2.40892 34.9886 3.16411 35.3396 3.3251C36.884 4.0319 38.5171 4.92789 39.1512 6.4997H41.9973V6.49556H49.2126C52.9854 6.49556 55.5384 7.30098 55.5384 12.0222C55.5384 16.7433 52.9854 17.5487 49.2126 17.5487C47.4185 17.5682 45.6245 17.589 43.8304 17.6085C42.4886 18.3957 41.1482 19.1817 39.8064 19.969C38.8713 20.5592 37.9375 21.1508 37.0022 21.7409H51.0983C56.1212 21.7409 60.5336 18.6318 60.5336 12.0222C60.5336 5.4125 56.1212 2.302 51.0983 2.302Z" fill="#7521FF"/>
<path d="M51.0983 2.302H33.7197C34.1083 2.40892 34.9886 3.16411 35.3396 3.3251C36.884 4.0319 38.5171 4.92789 39.1512 6.4997H41.9973V6.49556H49.2126C52.9854 6.49556 55.5384 7.30098 55.5384 12.0222C55.5384 16.7433 52.9854 17.5487 49.2126 17.5487C47.4185 17.5682 45.6245 17.589 43.8304 17.6085C42.4886 18.3957 41.1482 19.1817 39.8064 19.969C38.8713 20.5592 37.9375 21.1508 37.0022 21.7409H51.0983C56.1212 21.7409 60.5336 18.6318 60.5336 12.0222C60.5336 5.4125 56.1212 2.302 51.0983 2.302Z" fill="url(#paint0_radial_203_470)" fill-opacity="0.7"/>
<path d="M55.6312 13.897L55.1766 15.0561C54.9169 15.7183 54.4695 16.2904 53.8894 16.702C53.6027 16.9056 53.2881 17.0666 52.9554 17.1802L52.5663 17.3131C51.9977 17.5073 51.4049 17.6214 50.8048 17.6525L49.2368 17.7336H48.2563" stroke="url(#paint1_linear_203_470)" stroke-width="0.341033"/>
<path d="M24.8699 15.7131C24.8699 15.986 24.8529 16.2418 24.8272 16.489C24.8017 16.7022 24.7676 16.9153 24.725 17.1114C24.2902 19.1747 22.8323 20.4024 20.6326 21.093C20.4791 21.1441 20.3171 21.1868 20.1551 21.2293C20.0187 21.2635 19.8823 21.3061 19.7374 21.3402C17.8275 21.792 15.4659 21.9371 12.7803 21.9371C7.11913 21.9371 3.08641 21.2464 1.23631 18.8336L5.18376 15.7813C5.63564 17.2819 7.62215 17.981 13.0616 17.981C17.4354 17.981 19.2599 17.5718 19.7374 16.5487C19.8312 16.344 19.8737 16.1224 19.8737 15.8751C19.8737 15.5768 19.8397 15.3295 19.7374 15.1164C19.294 14.17 17.6144 13.9398 12.4819 13.684C4.03278 13.3004 0.682129 11.9703 0.682129 7.61363C0.682129 3.34219 5.0303 1.98657 12.2858 1.98657C15.2954 1.98657 17.8106 2.29351 19.7374 2.99263C19.8823 3.04378 20.0187 3.09493 20.1551 3.15462C20.3171 3.22282 20.4791 3.29103 20.6326 3.36776V6.45412H23.6678H17.2479C16.0627 6.07898 14.2637 5.95109 11.7316 5.95109C6.82925 5.95109 5.66121 6.42001 5.66121 7.86088C5.66121 9.36142 6.82073 9.63424 12.4733 9.96675C15.3295 10.1202 17.7849 10.2737 19.7288 10.6659C19.8737 10.6914 20.0102 10.7256 20.1466 10.7597C20.3086 10.7938 20.4706 10.8364 20.624 10.879C23.3523 11.5952 24.8699 12.9337 24.8699 15.7131Z" fill="#7521FF"/>
<path d="M24.8699 15.7131C24.8699 15.986 24.8529 16.2418 24.8272 16.489C24.8017 16.7022 24.7676 16.9153 24.725 17.1114C24.2902 19.1747 22.8323 20.4024 20.6326 21.093C20.4791 21.1441 20.3171 21.1868 20.1551 21.2293C20.0187 21.2635 19.8823 21.3061 19.7374 21.3402C17.8275 21.792 15.4659 21.9371 12.7803 21.9371C7.11913 21.9371 3.08641 21.2464 1.23631 18.8336L5.18376 15.7813C5.63564 17.2819 7.62215 17.981 13.0616 17.981C17.4354 17.981 19.2599 17.5718 19.7374 16.5487C19.8312 16.344 19.8737 16.1224 19.8737 15.8751C19.8737 15.5768 19.8397 15.3295 19.7374 15.1164C19.294 14.17 17.6144 13.9398 12.4819 13.684C4.03278 13.3004 0.682129 11.9703 0.682129 7.61363C0.682129 3.34219 5.0303 1.98657 12.2858 1.98657C15.2954 1.98657 17.8106 2.29351 19.7374 2.99263C19.8823 3.04378 20.0187 3.09493 20.1551 3.15462C20.3171 3.22282 20.4791 3.29103 20.6326 3.36776V6.45412H23.6678H17.2479C16.0627 6.07898 14.2637 5.95109 11.7316 5.95109C6.82925 5.95109 5.66121 6.42001 5.66121 7.86088C5.66121 9.36142 6.82073 9.63424 12.4733 9.96675C15.3295 10.1202 17.7849 10.2737 19.7288 10.6659C19.8737 10.6914 20.0102 10.7256 20.1466 10.7597C20.3086 10.7938 20.4706 10.8364 20.624 10.879C23.3523 11.5952 24.8699 12.9337 24.8699 15.7131Z" fill="url(#paint2_radial_203_470)" fill-opacity="0.6"/>
<path d="M43.3707 9.39549C43.3707 12.4222 41.8872 14.69 39.4829 15.7729C38.4513 16.2418 37.2491 16.489 35.9192 16.489H25.6369V21.6642H20.6323V21.1015C22.8405 20.4024 24.2899 19.1832 24.7248 17.1199C24.7673 16.9152 24.8015 16.7107 24.827 16.4975C24.8526 16.2503 24.8697 15.9945 24.8697 15.7216C24.8697 12.9422 23.3435 11.6633 20.6323 10.9556V10.069H25.6369V12.3113H34.5294C36.0299 12.3113 38.3661 12.3113 38.3661 9.40401C38.3661 6.47113 36.0299 6.47112 34.5294 6.47112H25.6369V6.47964H20.6323V2.29346H35.9192C36.7462 2.29346 37.522 2.38725 38.2381 2.58334C38.2808 2.59187 38.3234 2.60892 38.3661 2.61745C38.7582 2.72828 39.1248 2.85616 39.4744 3.01815C41.0005 3.71727 42.16 4.88532 42.7995 6.42849C42.808 6.44555 42.8165 6.46259 42.8251 6.47964C43.1831 7.33222 43.3707 8.32123 43.3707 9.39549Z" fill="#7521FF"/>
<path d="M43.3707 9.39549C43.3707 12.4222 41.8872 14.69 39.4829 15.7729C38.4513 16.2418 37.2491 16.489 35.9192 16.489H25.6369V21.6642H20.6323V21.1015C22.8405 20.4024 24.2899 19.1832 24.7248 17.1199C24.7673 16.9152 24.8015 16.7107 24.827 16.4975C24.8526 16.2503 24.8697 15.9945 24.8697 15.7216C24.8697 12.9422 23.3435 11.6633 20.6323 10.9556V10.069H25.6369V12.3113H34.5294C36.0299 12.3113 38.3661 12.3113 38.3661 9.40401C38.3661 6.47113 36.0299 6.47112 34.5294 6.47112H25.6369V6.47964H20.6323V2.29346H35.9192C36.7462 2.29346 37.522 2.38725 38.2381 2.58334C38.2808 2.59187 38.3234 2.60892 38.3661 2.61745C38.7582 2.72828 39.1248 2.85616 39.4744 3.01815C41.0005 3.71727 42.16 4.88532 42.7995 6.42849C42.808 6.44555 42.8165 6.46259 42.8251 6.47964C43.1831 7.33222 43.3707 8.32123 43.3707 9.39549Z" fill="url(#paint3_radial_203_470)"/>
<path d="M16.4546 10.4016L19.055 10.7L19.4383 10.7719C20.091 10.8943 20.7328 11.0698 21.357 11.2968L21.9673 11.5188C22.4929 11.7099 22.9746 12.0048 23.3839 12.3859C23.7906 12.7644 24.1174 13.2203 24.3454 13.7269L24.3836 13.8119L24.682 14.6646" stroke="url(#paint4_linear_203_470)" stroke-width="0.341033"/>
<path d="M5.11523 16.1138C5.24313 16.4974 5.9252 17.1795 6.73515 17.4352C7.73913 17.7523 8.56819 17.9468 9.33552 18.032C10.1029 18.1173 11.0406 18.1173 11.4244 18.1173" stroke="url(#paint5_linear_203_470)" stroke-width="0.341033"/>
<path d="M0.80957 6.99125C0.917761 5.85527 1.51865 4.82384 2.45349 4.16944L2.71623 3.98553C2.97905 3.80156 3.26043 3.64564 3.55577 3.52035L4.51831 3.112C5.73264 2.68839 7.00652 2.46021 8.2924 2.43594L8.6107 2.42993" stroke="url(#paint6_linear_203_470)" stroke-width="0.341033"/>
<path d="M33.0801 2.47241H36.4053L37.1894 2.55954C37.9401 2.64296 38.6716 2.85171 39.3534 3.17709C39.9145 3.44492 40.4361 3.78895 40.9032 4.19943L41.606 4.81701" stroke="url(#paint7_linear_203_470)" stroke-width="0.341033"/>
<path d="M48.7251 2.42993L51.8796 2.47256L52.9269 2.62217C53.6187 2.721 54.296 2.90337 54.9439 3.16529C55.6265 3.44124 56.2711 3.80329 56.8619 4.24263L57.6345 4.81716" stroke="url(#paint8_linear_203_470)" stroke-width="0.341033"/>
<path d="M32.9097 12.4904L35.2543 12.4479L36.3906 12.3126C36.8181 12.2617 37.2229 12.0921 37.559 11.8232C37.7825 11.6444 37.9709 11.4255 38.1143 11.1778L38.3662 10.7427" stroke="url(#paint9_linear_203_470)" stroke-width="0.341033"/>
</g>
<defs>
<radialGradient id="paint0_radial_203_470" cx="0" cy="0" r="1" gradientUnits="userSpaceOnUse" gradientTransform="translate(35.9365 5.20079) rotate(-29.2825) scale(53.0776 165.987)">
<stop stop-color="#290493"/>
<stop offset="0.27365" stop-color="#8900FF" stop-opacity="0"/>
</radialGradient>
<linearGradient id="paint1_linear_203_470" x1="48.1737" y1="17.9471" x2="55.2569" y2="17.9811" gradientUnits="userSpaceOnUse">
<stop stop-color="white" stop-opacity="0"/>
<stop offset="0.505155" stop-color="white"/>
<stop offset="1" stop-color="white" stop-opacity="0"/>
</linearGradient>
<radialGradient id="paint2_radial_203_470" cx="0" cy="0" r="1" gradientUnits="userSpaceOnUse" gradientTransform="translate(21.2294 4.85973) rotate(153.275) scale(6.82506 8.27465)">
<stop stop-color="#150067"/>
<stop offset="0.97071" stop-color="#130060" stop-opacity="0"/>
</radialGradient>
<radialGradient id="paint3_radial_203_470" cx="0" cy="0" r="1" gradientUnits="userSpaceOnUse" gradientTransform="translate(21.2292 17.4353) rotate(-0.944345) scale(7.75957 9.1086)">
<stop stop-color="#11068D" stop-opacity="0.92"/>
<stop offset="1" stop-opacity="0"/>
</radialGradient>
<linearGradient id="paint4_linear_203_470" x1="16.7104" y1="10.4016" x2="23.531" y2="15.3893" gradientUnits="userSpaceOnUse">
<stop stop-color="white" stop-opacity="0"/>
<stop offset="0.229167" stop-color="white"/>
<stop offset="1" stop-color="white" stop-opacity="0"/>
</linearGradient>
<linearGradient id="paint5_linear_203_470" x1="5.35786" y1="16.0285" x2="9.38864" y2="20.1205" gradientUnits="userSpaceOnUse">
<stop stop-color="white" stop-opacity="0"/>
<stop offset="0.359375" stop-color="white"/>
<stop offset="1" stop-color="white" stop-opacity="0"/>
</linearGradient>
<linearGradient id="paint6_linear_203_470" x1="0.692027" y1="6.25349" x2="9.04174" y2="4.95732" gradientUnits="userSpaceOnUse">
<stop stop-color="white" stop-opacity="0"/>
<stop offset="0.359375" stop-color="white"/>
<stop offset="1" stop-color="white" stop-opacity="0"/>
</linearGradient>
<linearGradient id="paint7_linear_203_470" x1="33.408" y1="2.37265" x2="38.0664" y2="7.83386" gradientUnits="userSpaceOnUse">
<stop stop-color="white" stop-opacity="0"/>
<stop offset="0.359375" stop-color="white"/>
<stop offset="1" stop-color="white" stop-opacity="0"/>
</linearGradient>
<linearGradient id="paint8_linear_203_470" x1="49.1809" y1="2.37279" x2="53.8393" y2="7.834" gradientUnits="userSpaceOnUse">
<stop stop-color="white" stop-opacity="0"/>
<stop offset="0.359375" stop-color="white"/>
<stop offset="1" stop-color="white" stop-opacity="0"/>
</linearGradient>
<linearGradient id="paint9_linear_203_470" x1="33.0375" y1="12.5757" x2="38.2678" y2="12.6179" gradientUnits="userSpaceOnUse">
<stop stop-color="white" stop-opacity="0"/>
<stop offset="0.505155" stop-color="white"/>
<stop offset="1" stop-color="white" stop-opacity="0"/>
</linearGradient>
<clipPath id="clip0_203_470">
<rect width="60.6368" height="22" fill="white"/>
</clipPath>
</defs>
</svg>
